M48
; DRILL file {KiCad 8.0.8} date 2025-04-12T20:39:13+0300
; FORMAT={-:-/ absolute / inch / decimal}
; #@! TF.CreationDate,2025-04-12T20:39:13+03:00
; #@! TF.GenerationSoftware,Kicad,Pcbnew,8.0.8
; #@! TF.FileFunction,Plated,1,2,PTH
FMAT,2
INCH
; #@! TA.AperFunction,Plated,PTH,ViaDrill
T1C0.0118
; #@! TA.AperFunction,Plated,PTH,ComponentDrill
T2C0.0354
; #@! TA.AperFunction,Plated,PTH,ComponentDrill
T3C0.0394
; #@! TA.AperFunction,Plated,PTH,ComponentDrill
T4C0.0469
%
G90
G05
T1
X4.0157Y-2.0472
X4.0157Y-2.5098
X4.0157Y-2.9724
X4.0157Y-3.435
X4.0157Y-3.8976
X4.071Y-2.8622
X4.1732Y-2.6772
X4.1969Y-3.1181
X4.225Y-2.7126
X4.2261Y-2.6339
X4.23Y-2.7913
X4.3858Y-3.8189
X4.5079Y-3.8976
X4.563Y-3.1762
X4.6378Y-3.1762
X4.8031Y-2.8346
X4.9272Y-3.3524
X4.9839Y-2.4729
X4.995Y-2.7913
X4.995Y-2.8701
X5.0Y-2.0079
X5.0Y-3.8976
X5.1732Y-3.1772
X5.1732Y-3.311
X5.189Y-3.5758
X5.189Y-3.7598
X5.2511Y-2.5221
X5.3071Y-3.311
X5.31Y-2.2195
X5.3133Y-2.2717
X5.315Y-3.6614
X5.315Y-2.1717
X5.315Y-2.3217
X5.33Y-2.6063
X5.4134Y-2.0079
X5.4163Y-3.5758
X5.4163Y-3.7667
X5.47Y-2.555
X5.4835Y-2.885
X5.4921Y-3.8976
X5.5787Y-3.2008
X5.7756Y-3.3976
X5.7756Y-3.4921
X5.835Y-2.42
X5.8465Y-2.878
X5.8537Y-2.0587
X5.9546Y-2.4701
X5.9589Y-2.1711
X5.9843Y-3.8976
X6.2188Y-2.1128
X6.3571Y-2.0433
X6.4071Y-2.0354
X6.455Y-2.065
X6.4567Y-2.4016
X6.4764Y-2.0079
X6.4764Y-3.5433
X6.4764Y-3.8976
X6.4961Y-2.4606
X6.4961Y-2.6969
X6.4961Y-3.2087
T2
X6.0797Y-2.2987
X6.0797Y-2.4907
T3
X5.0787Y-2.1329
X5.0787Y-2.2329
X5.0787Y-2.3329
X5.2244Y-2.1329
X5.2244Y-2.2329
X5.2244Y-2.3329
T4
X6.3189Y-2.8031
X6.3189Y-2.9031
X6.3189Y-3.0031
X6.3189Y-3.1031
M30
