%TF.GenerationSoftware,KiCad,Pcbnew,8.0.8*%
%TF.CreationDate,2025-04-12T01:31:05+03:00*%
%TF.ProjectId,ProPrj_CAN_2025-04-09,50726f50-726a-45f4-9341-4e5f32303235,rev?*%
%TF.SameCoordinates,Original*%
%TF.FileFunction,Legend,Top*%
%TF.FilePolarity,Positive*%
%FSLAX46Y46*%
G04 Gerber Fmt 4.6, Leading zero omitted, Abs format (unit mm)*
G04 Created by KiCad (PCBNEW 8.0.8) date 2025-04-12 01:31:05*
%MOMM*%
%LPD*%
G01*
G04 APERTURE LIST*
%ADD10C,0.150000*%
%ADD11C,0.120000*%
%ADD12C,0.152500*%
%ADD13C,0.300000*%
%ADD14C,0.152400*%
%ADD15C,0.200000*%
%ADD16C,0.254000*%
G04 APERTURE END LIST*
D10*
X128124819Y-65466666D02*
X127648628Y-65799999D01*
X128124819Y-66038094D02*
X127124819Y-66038094D01*
X127124819Y-66038094D02*
X127124819Y-65657142D01*
X127124819Y-65657142D02*
X127172438Y-65561904D01*
X127172438Y-65561904D02*
X127220057Y-65514285D01*
X127220057Y-65514285D02*
X127315295Y-65466666D01*
X127315295Y-65466666D02*
X127458152Y-65466666D01*
X127458152Y-65466666D02*
X127553390Y-65514285D01*
X127553390Y-65514285D02*
X127601009Y-65561904D01*
X127601009Y-65561904D02*
X127648628Y-65657142D01*
X127648628Y-65657142D02*
X127648628Y-66038094D01*
X128124819Y-64514285D02*
X128124819Y-65085713D01*
X128124819Y-64799999D02*
X127124819Y-64799999D01*
X127124819Y-64799999D02*
X127267676Y-64895237D01*
X127267676Y-64895237D02*
X127362914Y-64990475D01*
X127362914Y-64990475D02*
X127410533Y-65085713D01*
X106189580Y-72004166D02*
X106237200Y-72051785D01*
X106237200Y-72051785D02*
X106284819Y-72194642D01*
X106284819Y-72194642D02*
X106284819Y-72289880D01*
X106284819Y-72289880D02*
X106237200Y-72432737D01*
X106237200Y-72432737D02*
X106141961Y-72527975D01*
X106141961Y-72527975D02*
X106046723Y-72575594D01*
X106046723Y-72575594D02*
X105856247Y-72623213D01*
X105856247Y-72623213D02*
X105713390Y-72623213D01*
X105713390Y-72623213D02*
X105522914Y-72575594D01*
X105522914Y-72575594D02*
X105427676Y-72527975D01*
X105427676Y-72527975D02*
X105332438Y-72432737D01*
X105332438Y-72432737D02*
X105284819Y-72289880D01*
X105284819Y-72289880D02*
X105284819Y-72194642D01*
X105284819Y-72194642D02*
X105332438Y-72051785D01*
X105332438Y-72051785D02*
X105380057Y-72004166D01*
X106284819Y-71527975D02*
X106284819Y-71337499D01*
X106284819Y-71337499D02*
X106237200Y-71242261D01*
X106237200Y-71242261D02*
X106189580Y-71194642D01*
X106189580Y-71194642D02*
X106046723Y-71099404D01*
X106046723Y-71099404D02*
X105856247Y-71051785D01*
X105856247Y-71051785D02*
X105475295Y-71051785D01*
X105475295Y-71051785D02*
X105380057Y-71099404D01*
X105380057Y-71099404D02*
X105332438Y-71147023D01*
X105332438Y-71147023D02*
X105284819Y-71242261D01*
X105284819Y-71242261D02*
X105284819Y-71432737D01*
X105284819Y-71432737D02*
X105332438Y-71527975D01*
X105332438Y-71527975D02*
X105380057Y-71575594D01*
X105380057Y-71575594D02*
X105475295Y-71623213D01*
X105475295Y-71623213D02*
X105713390Y-71623213D01*
X105713390Y-71623213D02*
X105808628Y-71575594D01*
X105808628Y-71575594D02*
X105856247Y-71527975D01*
X105856247Y-71527975D02*
X105903866Y-71432737D01*
X105903866Y-71432737D02*
X105903866Y-71242261D01*
X105903866Y-71242261D02*
X105856247Y-71147023D01*
X105856247Y-71147023D02*
X105808628Y-71099404D01*
X105808628Y-71099404D02*
X105713390Y-71051785D01*
X101759580Y-82966666D02*
X101807200Y-83014285D01*
X101807200Y-83014285D02*
X101854819Y-83157142D01*
X101854819Y-83157142D02*
X101854819Y-83252380D01*
X101854819Y-83252380D02*
X101807200Y-83395237D01*
X101807200Y-83395237D02*
X101711961Y-83490475D01*
X101711961Y-83490475D02*
X101616723Y-83538094D01*
X101616723Y-83538094D02*
X101426247Y-83585713D01*
X101426247Y-83585713D02*
X101283390Y-83585713D01*
X101283390Y-83585713D02*
X101092914Y-83538094D01*
X101092914Y-83538094D02*
X100997676Y-83490475D01*
X100997676Y-83490475D02*
X100902438Y-83395237D01*
X100902438Y-83395237D02*
X100854819Y-83252380D01*
X100854819Y-83252380D02*
X100854819Y-83157142D01*
X100854819Y-83157142D02*
X100902438Y-83014285D01*
X100902438Y-83014285D02*
X100950057Y-82966666D01*
X101283390Y-82395237D02*
X101235771Y-82490475D01*
X101235771Y-82490475D02*
X101188152Y-82538094D01*
X101188152Y-82538094D02*
X101092914Y-82585713D01*
X101092914Y-82585713D02*
X101045295Y-82585713D01*
X101045295Y-82585713D02*
X100950057Y-82538094D01*
X100950057Y-82538094D02*
X100902438Y-82490475D01*
X100902438Y-82490475D02*
X100854819Y-82395237D01*
X100854819Y-82395237D02*
X100854819Y-82204761D01*
X100854819Y-82204761D02*
X100902438Y-82109523D01*
X100902438Y-82109523D02*
X100950057Y-82061904D01*
X100950057Y-82061904D02*
X101045295Y-82014285D01*
X101045295Y-82014285D02*
X101092914Y-82014285D01*
X101092914Y-82014285D02*
X101188152Y-82061904D01*
X101188152Y-82061904D02*
X101235771Y-82109523D01*
X101235771Y-82109523D02*
X101283390Y-82204761D01*
X101283390Y-82204761D02*
X101283390Y-82395237D01*
X101283390Y-82395237D02*
X101331009Y-82490475D01*
X101331009Y-82490475D02*
X101378628Y-82538094D01*
X101378628Y-82538094D02*
X101473866Y-82585713D01*
X101473866Y-82585713D02*
X101664342Y-82585713D01*
X101664342Y-82585713D02*
X101759580Y-82538094D01*
X101759580Y-82538094D02*
X101807200Y-82490475D01*
X101807200Y-82490475D02*
X101854819Y-82395237D01*
X101854819Y-82395237D02*
X101854819Y-82204761D01*
X101854819Y-82204761D02*
X101807200Y-82109523D01*
X101807200Y-82109523D02*
X101759580Y-82061904D01*
X101759580Y-82061904D02*
X101664342Y-82014285D01*
X101664342Y-82014285D02*
X101473866Y-82014285D01*
X101473866Y-82014285D02*
X101378628Y-82061904D01*
X101378628Y-82061904D02*
X101331009Y-82109523D01*
X101331009Y-82109523D02*
X101283390Y-82204761D01*
X114333333Y-79059580D02*
X114285714Y-79107200D01*
X114285714Y-79107200D02*
X114142857Y-79154819D01*
X114142857Y-79154819D02*
X114047619Y-79154819D01*
X114047619Y-79154819D02*
X113904762Y-79107200D01*
X113904762Y-79107200D02*
X113809524Y-79011961D01*
X113809524Y-79011961D02*
X113761905Y-78916723D01*
X113761905Y-78916723D02*
X113714286Y-78726247D01*
X113714286Y-78726247D02*
X113714286Y-78583390D01*
X113714286Y-78583390D02*
X113761905Y-78392914D01*
X113761905Y-78392914D02*
X113809524Y-78297676D01*
X113809524Y-78297676D02*
X113904762Y-78202438D01*
X113904762Y-78202438D02*
X114047619Y-78154819D01*
X114047619Y-78154819D02*
X114142857Y-78154819D01*
X114142857Y-78154819D02*
X114285714Y-78202438D01*
X114285714Y-78202438D02*
X114333333Y-78250057D01*
X115190476Y-78488152D02*
X115190476Y-79154819D01*
X114952381Y-78107200D02*
X114714286Y-78821485D01*
X114714286Y-78821485D02*
X115333333Y-78821485D01*
X158238095Y-50454819D02*
X158238095Y-51264342D01*
X158238095Y-51264342D02*
X158285714Y-51359580D01*
X158285714Y-51359580D02*
X158333333Y-51407200D01*
X158333333Y-51407200D02*
X158428571Y-51454819D01*
X158428571Y-51454819D02*
X158619047Y-51454819D01*
X158619047Y-51454819D02*
X158714285Y-51407200D01*
X158714285Y-51407200D02*
X158761904Y-51359580D01*
X158761904Y-51359580D02*
X158809523Y-51264342D01*
X158809523Y-51264342D02*
X158809523Y-50454819D01*
X159714285Y-50788152D02*
X159714285Y-51454819D01*
X159476190Y-50407200D02*
X159238095Y-51121485D01*
X159238095Y-51121485D02*
X159857142Y-51121485D01*
X151461905Y-96854819D02*
X151461905Y-95854819D01*
X151461905Y-95854819D02*
X151700000Y-95854819D01*
X151700000Y-95854819D02*
X151842857Y-95902438D01*
X151842857Y-95902438D02*
X151938095Y-95997676D01*
X151938095Y-95997676D02*
X151985714Y-96092914D01*
X151985714Y-96092914D02*
X152033333Y-96283390D01*
X152033333Y-96283390D02*
X152033333Y-96426247D01*
X152033333Y-96426247D02*
X151985714Y-96616723D01*
X151985714Y-96616723D02*
X151938095Y-96711961D01*
X151938095Y-96711961D02*
X151842857Y-96807200D01*
X151842857Y-96807200D02*
X151700000Y-96854819D01*
X151700000Y-96854819D02*
X151461905Y-96854819D01*
X152414286Y-95950057D02*
X152461905Y-95902438D01*
X152461905Y-95902438D02*
X152557143Y-95854819D01*
X152557143Y-95854819D02*
X152795238Y-95854819D01*
X152795238Y-95854819D02*
X152890476Y-95902438D01*
X152890476Y-95902438D02*
X152938095Y-95950057D01*
X152938095Y-95950057D02*
X152985714Y-96045295D01*
X152985714Y-96045295D02*
X152985714Y-96140533D01*
X152985714Y-96140533D02*
X152938095Y-96283390D01*
X152938095Y-96283390D02*
X152366667Y-96854819D01*
X152366667Y-96854819D02*
X152985714Y-96854819D01*
X152366666Y-83931009D02*
X152033333Y-83931009D01*
X152033333Y-84454819D02*
X152033333Y-83454819D01*
X152033333Y-83454819D02*
X152509523Y-83454819D01*
X153414285Y-84454819D02*
X152842857Y-84454819D01*
X153128571Y-84454819D02*
X153128571Y-83454819D01*
X153128571Y-83454819D02*
X153033333Y-83597676D01*
X153033333Y-83597676D02*
X152938095Y-83692914D01*
X152938095Y-83692914D02*
X152842857Y-83740533D01*
X126865286Y-51635819D02*
X126865286Y-50635819D01*
X126865286Y-50635819D02*
X127246238Y-50635819D01*
X127246238Y-50635819D02*
X127341476Y-50683438D01*
X127341476Y-50683438D02*
X127389095Y-50731057D01*
X127389095Y-50731057D02*
X127436714Y-50826295D01*
X127436714Y-50826295D02*
X127436714Y-50969152D01*
X127436714Y-50969152D02*
X127389095Y-51064390D01*
X127389095Y-51064390D02*
X127341476Y-51112009D01*
X127341476Y-51112009D02*
X127246238Y-51159628D01*
X127246238Y-51159628D02*
X126865286Y-51159628D01*
X128436714Y-51635819D02*
X128103381Y-51159628D01*
X127865286Y-51635819D02*
X127865286Y-50635819D01*
X127865286Y-50635819D02*
X128246238Y-50635819D01*
X128246238Y-50635819D02*
X128341476Y-50683438D01*
X128341476Y-50683438D02*
X128389095Y-50731057D01*
X128389095Y-50731057D02*
X128436714Y-50826295D01*
X128436714Y-50826295D02*
X128436714Y-50969152D01*
X128436714Y-50969152D02*
X128389095Y-51064390D01*
X128389095Y-51064390D02*
X128341476Y-51112009D01*
X128341476Y-51112009D02*
X128246238Y-51159628D01*
X128246238Y-51159628D02*
X127865286Y-51159628D01*
X129055762Y-50635819D02*
X129246238Y-50635819D01*
X129246238Y-50635819D02*
X129341476Y-50683438D01*
X129341476Y-50683438D02*
X129436714Y-50778676D01*
X129436714Y-50778676D02*
X129484333Y-50969152D01*
X129484333Y-50969152D02*
X129484333Y-51302485D01*
X129484333Y-51302485D02*
X129436714Y-51492961D01*
X129436714Y-51492961D02*
X129341476Y-51588200D01*
X129341476Y-51588200D02*
X129246238Y-51635819D01*
X129246238Y-51635819D02*
X129055762Y-51635819D01*
X129055762Y-51635819D02*
X128960524Y-51588200D01*
X128960524Y-51588200D02*
X128865286Y-51492961D01*
X128865286Y-51492961D02*
X128817667Y-51302485D01*
X128817667Y-51302485D02*
X128817667Y-50969152D01*
X128817667Y-50969152D02*
X128865286Y-50778676D01*
X128865286Y-50778676D02*
X128960524Y-50683438D01*
X128960524Y-50683438D02*
X129055762Y-50635819D01*
X130436714Y-50683438D02*
X130341476Y-50635819D01*
X130341476Y-50635819D02*
X130198619Y-50635819D01*
X130198619Y-50635819D02*
X130055762Y-50683438D01*
X130055762Y-50683438D02*
X129960524Y-50778676D01*
X129960524Y-50778676D02*
X129912905Y-50873914D01*
X129912905Y-50873914D02*
X129865286Y-51064390D01*
X129865286Y-51064390D02*
X129865286Y-51207247D01*
X129865286Y-51207247D02*
X129912905Y-51397723D01*
X129912905Y-51397723D02*
X129960524Y-51492961D01*
X129960524Y-51492961D02*
X130055762Y-51588200D01*
X130055762Y-51588200D02*
X130198619Y-51635819D01*
X130198619Y-51635819D02*
X130293857Y-51635819D01*
X130293857Y-51635819D02*
X130436714Y-51588200D01*
X130436714Y-51588200D02*
X130484333Y-51540580D01*
X130484333Y-51540580D02*
X130484333Y-51207247D01*
X130484333Y-51207247D02*
X130293857Y-51207247D01*
X154336809Y-51413628D02*
X154336809Y-51889819D01*
X154003476Y-50889819D02*
X154336809Y-51413628D01*
X154336809Y-51413628D02*
X154670142Y-50889819D01*
X155527285Y-51889819D02*
X154955857Y-51889819D01*
X155241571Y-51889819D02*
X155241571Y-50889819D01*
X155241571Y-50889819D02*
X155146333Y-51032676D01*
X155146333Y-51032676D02*
X155051095Y-51127914D01*
X155051095Y-51127914D02*
X154955857Y-51175533D01*
X129261905Y-81754819D02*
X129261905Y-80754819D01*
X129261905Y-80754819D02*
X129500000Y-80754819D01*
X129500000Y-80754819D02*
X129642857Y-80802438D01*
X129642857Y-80802438D02*
X129738095Y-80897676D01*
X129738095Y-80897676D02*
X129785714Y-80992914D01*
X129785714Y-80992914D02*
X129833333Y-81183390D01*
X129833333Y-81183390D02*
X129833333Y-81326247D01*
X129833333Y-81326247D02*
X129785714Y-81516723D01*
X129785714Y-81516723D02*
X129738095Y-81611961D01*
X129738095Y-81611961D02*
X129642857Y-81707200D01*
X129642857Y-81707200D02*
X129500000Y-81754819D01*
X129500000Y-81754819D02*
X129261905Y-81754819D01*
X130166667Y-80754819D02*
X130785714Y-80754819D01*
X130785714Y-80754819D02*
X130452381Y-81135771D01*
X130452381Y-81135771D02*
X130595238Y-81135771D01*
X130595238Y-81135771D02*
X130690476Y-81183390D01*
X130690476Y-81183390D02*
X130738095Y-81231009D01*
X130738095Y-81231009D02*
X130785714Y-81326247D01*
X130785714Y-81326247D02*
X130785714Y-81564342D01*
X130785714Y-81564342D02*
X130738095Y-81659580D01*
X130738095Y-81659580D02*
X130690476Y-81707200D01*
X130690476Y-81707200D02*
X130595238Y-81754819D01*
X130595238Y-81754819D02*
X130309524Y-81754819D01*
X130309524Y-81754819D02*
X130214286Y-81707200D01*
X130214286Y-81707200D02*
X130166667Y-81659580D01*
X111233333Y-94954819D02*
X110757143Y-94954819D01*
X110757143Y-94954819D02*
X110757143Y-93954819D01*
X111519048Y-94050057D02*
X111566667Y-94002438D01*
X111566667Y-94002438D02*
X111661905Y-93954819D01*
X111661905Y-93954819D02*
X111900000Y-93954819D01*
X111900000Y-93954819D02*
X111995238Y-94002438D01*
X111995238Y-94002438D02*
X112042857Y-94050057D01*
X112042857Y-94050057D02*
X112090476Y-94145295D01*
X112090476Y-94145295D02*
X112090476Y-94240533D01*
X112090476Y-94240533D02*
X112042857Y-94383390D01*
X112042857Y-94383390D02*
X111471429Y-94954819D01*
X111471429Y-94954819D02*
X112090476Y-94954819D01*
X103424819Y-59954166D02*
X102948628Y-60287499D01*
X103424819Y-60525594D02*
X102424819Y-60525594D01*
X102424819Y-60525594D02*
X102424819Y-60144642D01*
X102424819Y-60144642D02*
X102472438Y-60049404D01*
X102472438Y-60049404D02*
X102520057Y-60001785D01*
X102520057Y-60001785D02*
X102615295Y-59954166D01*
X102615295Y-59954166D02*
X102758152Y-59954166D01*
X102758152Y-59954166D02*
X102853390Y-60001785D01*
X102853390Y-60001785D02*
X102901009Y-60049404D01*
X102901009Y-60049404D02*
X102948628Y-60144642D01*
X102948628Y-60144642D02*
X102948628Y-60525594D01*
X102520057Y-59573213D02*
X102472438Y-59525594D01*
X102472438Y-59525594D02*
X102424819Y-59430356D01*
X102424819Y-59430356D02*
X102424819Y-59192261D01*
X102424819Y-59192261D02*
X102472438Y-59097023D01*
X102472438Y-59097023D02*
X102520057Y-59049404D01*
X102520057Y-59049404D02*
X102615295Y-59001785D01*
X102615295Y-59001785D02*
X102710533Y-59001785D01*
X102710533Y-59001785D02*
X102853390Y-59049404D01*
X102853390Y-59049404D02*
X103424819Y-59620832D01*
X103424819Y-59620832D02*
X103424819Y-59001785D01*
X103738095Y-54754819D02*
X103738095Y-55564342D01*
X103738095Y-55564342D02*
X103785714Y-55659580D01*
X103785714Y-55659580D02*
X103833333Y-55707200D01*
X103833333Y-55707200D02*
X103928571Y-55754819D01*
X103928571Y-55754819D02*
X104119047Y-55754819D01*
X104119047Y-55754819D02*
X104214285Y-55707200D01*
X104214285Y-55707200D02*
X104261904Y-55659580D01*
X104261904Y-55659580D02*
X104309523Y-55564342D01*
X104309523Y-55564342D02*
X104309523Y-54754819D01*
X105261904Y-54754819D02*
X104785714Y-54754819D01*
X104785714Y-54754819D02*
X104738095Y-55231009D01*
X104738095Y-55231009D02*
X104785714Y-55183390D01*
X104785714Y-55183390D02*
X104880952Y-55135771D01*
X104880952Y-55135771D02*
X105119047Y-55135771D01*
X105119047Y-55135771D02*
X105214285Y-55183390D01*
X105214285Y-55183390D02*
X105261904Y-55231009D01*
X105261904Y-55231009D02*
X105309523Y-55326247D01*
X105309523Y-55326247D02*
X105309523Y-55564342D01*
X105309523Y-55564342D02*
X105261904Y-55659580D01*
X105261904Y-55659580D02*
X105214285Y-55707200D01*
X105214285Y-55707200D02*
X105119047Y-55754819D01*
X105119047Y-55754819D02*
X104880952Y-55754819D01*
X104880952Y-55754819D02*
X104785714Y-55707200D01*
X104785714Y-55707200D02*
X104738095Y-55659580D01*
X152004819Y-82066666D02*
X152004819Y-82542856D01*
X152004819Y-82542856D02*
X151004819Y-82542856D01*
X152004819Y-81209523D02*
X152004819Y-81780951D01*
X152004819Y-81495237D02*
X151004819Y-81495237D01*
X151004819Y-81495237D02*
X151147676Y-81590475D01*
X151147676Y-81590475D02*
X151242914Y-81685713D01*
X151242914Y-81685713D02*
X151290533Y-81780951D01*
X142059580Y-85566666D02*
X142107200Y-85614285D01*
X142107200Y-85614285D02*
X142154819Y-85757142D01*
X142154819Y-85757142D02*
X142154819Y-85852380D01*
X142154819Y-85852380D02*
X142107200Y-85995237D01*
X142107200Y-85995237D02*
X142011961Y-86090475D01*
X142011961Y-86090475D02*
X141916723Y-86138094D01*
X141916723Y-86138094D02*
X141726247Y-86185713D01*
X141726247Y-86185713D02*
X141583390Y-86185713D01*
X141583390Y-86185713D02*
X141392914Y-86138094D01*
X141392914Y-86138094D02*
X141297676Y-86090475D01*
X141297676Y-86090475D02*
X141202438Y-85995237D01*
X141202438Y-85995237D02*
X141154819Y-85852380D01*
X141154819Y-85852380D02*
X141154819Y-85757142D01*
X141154819Y-85757142D02*
X141202438Y-85614285D01*
X141202438Y-85614285D02*
X141250057Y-85566666D01*
X141250057Y-85185713D02*
X141202438Y-85138094D01*
X141202438Y-85138094D02*
X141154819Y-85042856D01*
X141154819Y-85042856D02*
X141154819Y-84804761D01*
X141154819Y-84804761D02*
X141202438Y-84709523D01*
X141202438Y-84709523D02*
X141250057Y-84661904D01*
X141250057Y-84661904D02*
X141345295Y-84614285D01*
X141345295Y-84614285D02*
X141440533Y-84614285D01*
X141440533Y-84614285D02*
X141583390Y-84661904D01*
X141583390Y-84661904D02*
X142154819Y-85233332D01*
X142154819Y-85233332D02*
X142154819Y-84614285D01*
X157154819Y-76338094D02*
X156154819Y-76338094D01*
X156154819Y-76338094D02*
X156154819Y-76099999D01*
X156154819Y-76099999D02*
X156202438Y-75957142D01*
X156202438Y-75957142D02*
X156297676Y-75861904D01*
X156297676Y-75861904D02*
X156392914Y-75814285D01*
X156392914Y-75814285D02*
X156583390Y-75766666D01*
X156583390Y-75766666D02*
X156726247Y-75766666D01*
X156726247Y-75766666D02*
X156916723Y-75814285D01*
X156916723Y-75814285D02*
X157011961Y-75861904D01*
X157011961Y-75861904D02*
X157107200Y-75957142D01*
X157107200Y-75957142D02*
X157154819Y-76099999D01*
X157154819Y-76099999D02*
X157154819Y-76338094D01*
X157154819Y-74814285D02*
X157154819Y-75385713D01*
X157154819Y-75099999D02*
X156154819Y-75099999D01*
X156154819Y-75099999D02*
X156297676Y-75195237D01*
X156297676Y-75195237D02*
X156392914Y-75290475D01*
X156392914Y-75290475D02*
X156440533Y-75385713D01*
X105410095Y-98442819D02*
X105410095Y-99252342D01*
X105410095Y-99252342D02*
X105457714Y-99347580D01*
X105457714Y-99347580D02*
X105505333Y-99395200D01*
X105505333Y-99395200D02*
X105600571Y-99442819D01*
X105600571Y-99442819D02*
X105791047Y-99442819D01*
X105791047Y-99442819D02*
X105886285Y-99395200D01*
X105886285Y-99395200D02*
X105933904Y-99347580D01*
X105933904Y-99347580D02*
X105981523Y-99252342D01*
X105981523Y-99252342D02*
X105981523Y-98442819D01*
X106362476Y-98442819D02*
X106981523Y-98442819D01*
X106981523Y-98442819D02*
X106648190Y-98823771D01*
X106648190Y-98823771D02*
X106791047Y-98823771D01*
X106791047Y-98823771D02*
X106886285Y-98871390D01*
X106886285Y-98871390D02*
X106933904Y-98919009D01*
X106933904Y-98919009D02*
X106981523Y-99014247D01*
X106981523Y-99014247D02*
X106981523Y-99252342D01*
X106981523Y-99252342D02*
X106933904Y-99347580D01*
X106933904Y-99347580D02*
X106886285Y-99395200D01*
X106886285Y-99395200D02*
X106791047Y-99442819D01*
X106791047Y-99442819D02*
X106505333Y-99442819D01*
X106505333Y-99442819D02*
X106410095Y-99395200D01*
X106410095Y-99395200D02*
X106362476Y-99347580D01*
X103424819Y-65666666D02*
X102948628Y-65999999D01*
X103424819Y-66238094D02*
X102424819Y-66238094D01*
X102424819Y-66238094D02*
X102424819Y-65857142D01*
X102424819Y-65857142D02*
X102472438Y-65761904D01*
X102472438Y-65761904D02*
X102520057Y-65714285D01*
X102520057Y-65714285D02*
X102615295Y-65666666D01*
X102615295Y-65666666D02*
X102758152Y-65666666D01*
X102758152Y-65666666D02*
X102853390Y-65714285D01*
X102853390Y-65714285D02*
X102901009Y-65761904D01*
X102901009Y-65761904D02*
X102948628Y-65857142D01*
X102948628Y-65857142D02*
X102948628Y-66238094D01*
X102424819Y-65333332D02*
X102424819Y-64714285D01*
X102424819Y-64714285D02*
X102805771Y-65047618D01*
X102805771Y-65047618D02*
X102805771Y-64904761D01*
X102805771Y-64904761D02*
X102853390Y-64809523D01*
X102853390Y-64809523D02*
X102901009Y-64761904D01*
X102901009Y-64761904D02*
X102996247Y-64714285D01*
X102996247Y-64714285D02*
X103234342Y-64714285D01*
X103234342Y-64714285D02*
X103329580Y-64761904D01*
X103329580Y-64761904D02*
X103377200Y-64809523D01*
X103377200Y-64809523D02*
X103424819Y-64904761D01*
X103424819Y-64904761D02*
X103424819Y-65190475D01*
X103424819Y-65190475D02*
X103377200Y-65285713D01*
X103377200Y-65285713D02*
X103329580Y-65333332D01*
X133238095Y-98654819D02*
X133238095Y-99464342D01*
X133238095Y-99464342D02*
X133285714Y-99559580D01*
X133285714Y-99559580D02*
X133333333Y-99607200D01*
X133333333Y-99607200D02*
X133428571Y-99654819D01*
X133428571Y-99654819D02*
X133619047Y-99654819D01*
X133619047Y-99654819D02*
X133714285Y-99607200D01*
X133714285Y-99607200D02*
X133761904Y-99559580D01*
X133761904Y-99559580D02*
X133809523Y-99464342D01*
X133809523Y-99464342D02*
X133809523Y-98654819D01*
X134809523Y-99654819D02*
X134238095Y-99654819D01*
X134523809Y-99654819D02*
X134523809Y-98654819D01*
X134523809Y-98654819D02*
X134428571Y-98797676D01*
X134428571Y-98797676D02*
X134333333Y-98892914D01*
X134333333Y-98892914D02*
X134238095Y-98940533D01*
X157554819Y-75133333D02*
X158269104Y-75133333D01*
X158269104Y-75133333D02*
X158411961Y-75180952D01*
X158411961Y-75180952D02*
X158507200Y-75276190D01*
X158507200Y-75276190D02*
X158554819Y-75419047D01*
X158554819Y-75419047D02*
X158554819Y-75514285D01*
X157554819Y-74752380D02*
X157554819Y-74133333D01*
X157554819Y-74133333D02*
X157935771Y-74466666D01*
X157935771Y-74466666D02*
X157935771Y-74323809D01*
X157935771Y-74323809D02*
X157983390Y-74228571D01*
X157983390Y-74228571D02*
X158031009Y-74180952D01*
X158031009Y-74180952D02*
X158126247Y-74133333D01*
X158126247Y-74133333D02*
X158364342Y-74133333D01*
X158364342Y-74133333D02*
X158459580Y-74180952D01*
X158459580Y-74180952D02*
X158507200Y-74228571D01*
X158507200Y-74228571D02*
X158554819Y-74323809D01*
X158554819Y-74323809D02*
X158554819Y-74609523D01*
X158554819Y-74609523D02*
X158507200Y-74704761D01*
X158507200Y-74704761D02*
X158459580Y-74752380D01*
X147661333Y-51413580D02*
X147613714Y-51461200D01*
X147613714Y-51461200D02*
X147470857Y-51508819D01*
X147470857Y-51508819D02*
X147375619Y-51508819D01*
X147375619Y-51508819D02*
X147232762Y-51461200D01*
X147232762Y-51461200D02*
X147137524Y-51365961D01*
X147137524Y-51365961D02*
X147089905Y-51270723D01*
X147089905Y-51270723D02*
X147042286Y-51080247D01*
X147042286Y-51080247D02*
X147042286Y-50937390D01*
X147042286Y-50937390D02*
X147089905Y-50746914D01*
X147089905Y-50746914D02*
X147137524Y-50651676D01*
X147137524Y-50651676D02*
X147232762Y-50556438D01*
X147232762Y-50556438D02*
X147375619Y-50508819D01*
X147375619Y-50508819D02*
X147470857Y-50508819D01*
X147470857Y-50508819D02*
X147613714Y-50556438D01*
X147613714Y-50556438D02*
X147661333Y-50604057D01*
X148566095Y-50508819D02*
X148089905Y-50508819D01*
X148089905Y-50508819D02*
X148042286Y-50985009D01*
X148042286Y-50985009D02*
X148089905Y-50937390D01*
X148089905Y-50937390D02*
X148185143Y-50889771D01*
X148185143Y-50889771D02*
X148423238Y-50889771D01*
X148423238Y-50889771D02*
X148518476Y-50937390D01*
X148518476Y-50937390D02*
X148566095Y-50985009D01*
X148566095Y-50985009D02*
X148613714Y-51080247D01*
X148613714Y-51080247D02*
X148613714Y-51318342D01*
X148613714Y-51318342D02*
X148566095Y-51413580D01*
X148566095Y-51413580D02*
X148518476Y-51461200D01*
X148518476Y-51461200D02*
X148423238Y-51508819D01*
X148423238Y-51508819D02*
X148185143Y-51508819D01*
X148185143Y-51508819D02*
X148089905Y-51461200D01*
X148089905Y-51461200D02*
X148042286Y-51413580D01*
X148822580Y-58205666D02*
X148870200Y-58253285D01*
X148870200Y-58253285D02*
X148917819Y-58396142D01*
X148917819Y-58396142D02*
X148917819Y-58491380D01*
X148917819Y-58491380D02*
X148870200Y-58634237D01*
X148870200Y-58634237D02*
X148774961Y-58729475D01*
X148774961Y-58729475D02*
X148679723Y-58777094D01*
X148679723Y-58777094D02*
X148489247Y-58824713D01*
X148489247Y-58824713D02*
X148346390Y-58824713D01*
X148346390Y-58824713D02*
X148155914Y-58777094D01*
X148155914Y-58777094D02*
X148060676Y-58729475D01*
X148060676Y-58729475D02*
X147965438Y-58634237D01*
X147965438Y-58634237D02*
X147917819Y-58491380D01*
X147917819Y-58491380D02*
X147917819Y-58396142D01*
X147917819Y-58396142D02*
X147965438Y-58253285D01*
X147965438Y-58253285D02*
X148013057Y-58205666D01*
X147917819Y-57348523D02*
X147917819Y-57538999D01*
X147917819Y-57538999D02*
X147965438Y-57634237D01*
X147965438Y-57634237D02*
X148013057Y-57681856D01*
X148013057Y-57681856D02*
X148155914Y-57777094D01*
X148155914Y-57777094D02*
X148346390Y-57824713D01*
X148346390Y-57824713D02*
X148727342Y-57824713D01*
X148727342Y-57824713D02*
X148822580Y-57777094D01*
X148822580Y-57777094D02*
X148870200Y-57729475D01*
X148870200Y-57729475D02*
X148917819Y-57634237D01*
X148917819Y-57634237D02*
X148917819Y-57443761D01*
X148917819Y-57443761D02*
X148870200Y-57348523D01*
X148870200Y-57348523D02*
X148822580Y-57300904D01*
X148822580Y-57300904D02*
X148727342Y-57253285D01*
X148727342Y-57253285D02*
X148489247Y-57253285D01*
X148489247Y-57253285D02*
X148394009Y-57300904D01*
X148394009Y-57300904D02*
X148346390Y-57348523D01*
X148346390Y-57348523D02*
X148298771Y-57443761D01*
X148298771Y-57443761D02*
X148298771Y-57634237D01*
X148298771Y-57634237D02*
X148346390Y-57729475D01*
X148346390Y-57729475D02*
X148394009Y-57777094D01*
X148394009Y-57777094D02*
X148489247Y-57824713D01*
X142251819Y-65573904D02*
X143061342Y-65573904D01*
X143061342Y-65573904D02*
X143156580Y-65526285D01*
X143156580Y-65526285D02*
X143204200Y-65478666D01*
X143204200Y-65478666D02*
X143251819Y-65383428D01*
X143251819Y-65383428D02*
X143251819Y-65192952D01*
X143251819Y-65192952D02*
X143204200Y-65097714D01*
X143204200Y-65097714D02*
X143156580Y-65050095D01*
X143156580Y-65050095D02*
X143061342Y-65002476D01*
X143061342Y-65002476D02*
X142251819Y-65002476D01*
X142347057Y-64573904D02*
X142299438Y-64526285D01*
X142299438Y-64526285D02*
X142251819Y-64431047D01*
X142251819Y-64431047D02*
X142251819Y-64192952D01*
X142251819Y-64192952D02*
X142299438Y-64097714D01*
X142299438Y-64097714D02*
X142347057Y-64050095D01*
X142347057Y-64050095D02*
X142442295Y-64002476D01*
X142442295Y-64002476D02*
X142537533Y-64002476D01*
X142537533Y-64002476D02*
X142680390Y-64050095D01*
X142680390Y-64050095D02*
X143251819Y-64621523D01*
X143251819Y-64621523D02*
X143251819Y-64002476D01*
X131129580Y-65504166D02*
X131177200Y-65551785D01*
X131177200Y-65551785D02*
X131224819Y-65694642D01*
X131224819Y-65694642D02*
X131224819Y-65789880D01*
X131224819Y-65789880D02*
X131177200Y-65932737D01*
X131177200Y-65932737D02*
X131081961Y-66027975D01*
X131081961Y-66027975D02*
X130986723Y-66075594D01*
X130986723Y-66075594D02*
X130796247Y-66123213D01*
X130796247Y-66123213D02*
X130653390Y-66123213D01*
X130653390Y-66123213D02*
X130462914Y-66075594D01*
X130462914Y-66075594D02*
X130367676Y-66027975D01*
X130367676Y-66027975D02*
X130272438Y-65932737D01*
X130272438Y-65932737D02*
X130224819Y-65789880D01*
X130224819Y-65789880D02*
X130224819Y-65694642D01*
X130224819Y-65694642D02*
X130272438Y-65551785D01*
X130272438Y-65551785D02*
X130320057Y-65504166D01*
X130224819Y-65170832D02*
X130224819Y-64504166D01*
X130224819Y-64504166D02*
X131224819Y-64932737D01*
X141859580Y-92466666D02*
X141907200Y-92514285D01*
X141907200Y-92514285D02*
X141954819Y-92657142D01*
X141954819Y-92657142D02*
X141954819Y-92752380D01*
X141954819Y-92752380D02*
X141907200Y-92895237D01*
X141907200Y-92895237D02*
X141811961Y-92990475D01*
X141811961Y-92990475D02*
X141716723Y-93038094D01*
X141716723Y-93038094D02*
X141526247Y-93085713D01*
X141526247Y-93085713D02*
X141383390Y-93085713D01*
X141383390Y-93085713D02*
X141192914Y-93038094D01*
X141192914Y-93038094D02*
X141097676Y-92990475D01*
X141097676Y-92990475D02*
X141002438Y-92895237D01*
X141002438Y-92895237D02*
X140954819Y-92752380D01*
X140954819Y-92752380D02*
X140954819Y-92657142D01*
X140954819Y-92657142D02*
X141002438Y-92514285D01*
X141002438Y-92514285D02*
X141050057Y-92466666D01*
X140954819Y-92133332D02*
X140954819Y-91514285D01*
X140954819Y-91514285D02*
X141335771Y-91847618D01*
X141335771Y-91847618D02*
X141335771Y-91704761D01*
X141335771Y-91704761D02*
X141383390Y-91609523D01*
X141383390Y-91609523D02*
X141431009Y-91561904D01*
X141431009Y-91561904D02*
X141526247Y-91514285D01*
X141526247Y-91514285D02*
X141764342Y-91514285D01*
X141764342Y-91514285D02*
X141859580Y-91561904D01*
X141859580Y-91561904D02*
X141907200Y-91609523D01*
X141907200Y-91609523D02*
X141954819Y-91704761D01*
X141954819Y-91704761D02*
X141954819Y-91990475D01*
X141954819Y-91990475D02*
X141907200Y-92085713D01*
X141907200Y-92085713D02*
X141859580Y-92133332D01*
X131738857Y-51112009D02*
X131881714Y-51159628D01*
X131881714Y-51159628D02*
X131929333Y-51207247D01*
X131929333Y-51207247D02*
X131976952Y-51302485D01*
X131976952Y-51302485D02*
X131976952Y-51445342D01*
X131976952Y-51445342D02*
X131929333Y-51540580D01*
X131929333Y-51540580D02*
X131881714Y-51588200D01*
X131881714Y-51588200D02*
X131786476Y-51635819D01*
X131786476Y-51635819D02*
X131405524Y-51635819D01*
X131405524Y-51635819D02*
X131405524Y-50635819D01*
X131405524Y-50635819D02*
X131738857Y-50635819D01*
X131738857Y-50635819D02*
X131834095Y-50683438D01*
X131834095Y-50683438D02*
X131881714Y-50731057D01*
X131881714Y-50731057D02*
X131929333Y-50826295D01*
X131929333Y-50826295D02*
X131929333Y-50921533D01*
X131929333Y-50921533D02*
X131881714Y-51016771D01*
X131881714Y-51016771D02*
X131834095Y-51064390D01*
X131834095Y-51064390D02*
X131738857Y-51112009D01*
X131738857Y-51112009D02*
X131405524Y-51112009D01*
X132596000Y-50635819D02*
X132786476Y-50635819D01*
X132786476Y-50635819D02*
X132881714Y-50683438D01*
X132881714Y-50683438D02*
X132976952Y-50778676D01*
X132976952Y-50778676D02*
X133024571Y-50969152D01*
X133024571Y-50969152D02*
X133024571Y-51302485D01*
X133024571Y-51302485D02*
X132976952Y-51492961D01*
X132976952Y-51492961D02*
X132881714Y-51588200D01*
X132881714Y-51588200D02*
X132786476Y-51635819D01*
X132786476Y-51635819D02*
X132596000Y-51635819D01*
X132596000Y-51635819D02*
X132500762Y-51588200D01*
X132500762Y-51588200D02*
X132405524Y-51492961D01*
X132405524Y-51492961D02*
X132357905Y-51302485D01*
X132357905Y-51302485D02*
X132357905Y-50969152D01*
X132357905Y-50969152D02*
X132405524Y-50778676D01*
X132405524Y-50778676D02*
X132500762Y-50683438D01*
X132500762Y-50683438D02*
X132596000Y-50635819D01*
X133643619Y-50635819D02*
X133834095Y-50635819D01*
X133834095Y-50635819D02*
X133929333Y-50683438D01*
X133929333Y-50683438D02*
X134024571Y-50778676D01*
X134024571Y-50778676D02*
X134072190Y-50969152D01*
X134072190Y-50969152D02*
X134072190Y-51302485D01*
X134072190Y-51302485D02*
X134024571Y-51492961D01*
X134024571Y-51492961D02*
X133929333Y-51588200D01*
X133929333Y-51588200D02*
X133834095Y-51635819D01*
X133834095Y-51635819D02*
X133643619Y-51635819D01*
X133643619Y-51635819D02*
X133548381Y-51588200D01*
X133548381Y-51588200D02*
X133453143Y-51492961D01*
X133453143Y-51492961D02*
X133405524Y-51302485D01*
X133405524Y-51302485D02*
X133405524Y-50969152D01*
X133405524Y-50969152D02*
X133453143Y-50778676D01*
X133453143Y-50778676D02*
X133548381Y-50683438D01*
X133548381Y-50683438D02*
X133643619Y-50635819D01*
X134357905Y-50635819D02*
X134929333Y-50635819D01*
X134643619Y-51635819D02*
X134643619Y-50635819D01*
X161933333Y-67084819D02*
X161600000Y-66608628D01*
X161361905Y-67084819D02*
X161361905Y-66084819D01*
X161361905Y-66084819D02*
X161742857Y-66084819D01*
X161742857Y-66084819D02*
X161838095Y-66132438D01*
X161838095Y-66132438D02*
X161885714Y-66180057D01*
X161885714Y-66180057D02*
X161933333Y-66275295D01*
X161933333Y-66275295D02*
X161933333Y-66418152D01*
X161933333Y-66418152D02*
X161885714Y-66513390D01*
X161885714Y-66513390D02*
X161838095Y-66561009D01*
X161838095Y-66561009D02*
X161742857Y-66608628D01*
X161742857Y-66608628D02*
X161361905Y-66608628D01*
X162790476Y-66418152D02*
X162790476Y-67084819D01*
X162552381Y-66037200D02*
X162314286Y-66751485D01*
X162314286Y-66751485D02*
X162933333Y-66751485D01*
X141839580Y-69645666D02*
X141887200Y-69693285D01*
X141887200Y-69693285D02*
X141934819Y-69836142D01*
X141934819Y-69836142D02*
X141934819Y-69931380D01*
X141934819Y-69931380D02*
X141887200Y-70074237D01*
X141887200Y-70074237D02*
X141791961Y-70169475D01*
X141791961Y-70169475D02*
X141696723Y-70217094D01*
X141696723Y-70217094D02*
X141506247Y-70264713D01*
X141506247Y-70264713D02*
X141363390Y-70264713D01*
X141363390Y-70264713D02*
X141172914Y-70217094D01*
X141172914Y-70217094D02*
X141077676Y-70169475D01*
X141077676Y-70169475D02*
X140982438Y-70074237D01*
X140982438Y-70074237D02*
X140934819Y-69931380D01*
X140934819Y-69931380D02*
X140934819Y-69836142D01*
X140934819Y-69836142D02*
X140982438Y-69693285D01*
X140982438Y-69693285D02*
X141030057Y-69645666D01*
X141934819Y-68693285D02*
X141934819Y-69264713D01*
X141934819Y-68978999D02*
X140934819Y-68978999D01*
X140934819Y-68978999D02*
X141077676Y-69074237D01*
X141077676Y-69074237D02*
X141172914Y-69169475D01*
X141172914Y-69169475D02*
X141220533Y-69264713D01*
D11*
%TO.C,R1*%
X128577500Y-65554724D02*
X128577500Y-65045276D01*
X129622500Y-65554724D02*
X129622500Y-65045276D01*
%TO.C,C9*%
X103890000Y-71691233D02*
X103890000Y-71983767D01*
X104910000Y-71691233D02*
X104910000Y-71983767D01*
%TO.C,C8*%
X102340000Y-78540000D02*
X105290000Y-78540000D01*
X102340000Y-85995563D02*
X102340000Y-78540000D01*
X103404437Y-87060000D02*
X102340000Y-85995563D01*
X103404437Y-87060000D02*
X105290000Y-87060000D01*
X109795563Y-87060000D02*
X107910000Y-87060000D01*
X109795563Y-87060000D02*
X110860000Y-85995563D01*
X110860000Y-78540000D02*
X107910000Y-78540000D01*
X110860000Y-85995563D02*
X110860000Y-78540000D01*
%TO.C,C4*%
X113990000Y-81683767D02*
X113990000Y-81391233D01*
X115010000Y-81683767D02*
X115010000Y-81391233D01*
D12*
%TO.C,U4*%
X159579000Y-54906000D02*
X164631000Y-54906000D01*
X159579000Y-57949000D02*
X159579000Y-54906000D01*
X159579000Y-57949000D02*
X164631000Y-57949000D01*
X164631000Y-57949000D02*
X164631000Y-54906000D01*
D13*
X164160000Y-55658500D02*
G75*
G02*
X163860000Y-55658500I-150000J0D01*
G01*
X163860000Y-55658500D02*
G75*
G02*
X164160000Y-55658500I150000J0D01*
G01*
X164906500Y-53655000D02*
G75*
G02*
X164606500Y-53655000I-150000J0D01*
G01*
X164606500Y-53655000D02*
G75*
G02*
X164906500Y-53655000I150000J0D01*
G01*
D11*
%TO.C,D2*%
X164810000Y-91450000D02*
X154800000Y-91450000D01*
X164810000Y-91450000D02*
X164810000Y-97950000D01*
X164810000Y-97950000D02*
X154800000Y-97950000D01*
D14*
%TO.C,F1*%
X154407400Y-82020200D02*
X154407400Y-82817760D01*
X154407400Y-88182240D02*
X154407400Y-88979800D01*
X154407400Y-88979800D02*
X164161000Y-88979800D01*
X164161000Y-82020200D02*
X154407400Y-82020200D01*
X164161000Y-82817760D02*
X164161000Y-82020200D01*
X164161000Y-88979800D02*
X164161000Y-88182240D01*
X152722001Y-85500000D02*
G75*
G02*
X152468001Y-85500000I-127000J0D01*
G01*
X152468001Y-85500000D02*
G75*
G02*
X152722001Y-85500000I127000J0D01*
G01*
D11*
%TO.C,J2*%
X127670000Y-52845000D02*
X129000000Y-52845000D01*
X127670000Y-54175000D02*
X127670000Y-52845000D01*
X127670000Y-55445000D02*
X127670000Y-60585000D01*
X127670000Y-55445000D02*
X130330000Y-55445000D01*
X127670000Y-60585000D02*
X130330000Y-60585000D01*
X130330000Y-55445000D02*
X130330000Y-60585000D01*
%TO.C,Y1*%
X152250000Y-50525000D02*
X152250000Y-66500000D01*
D15*
X152275316Y-63874565D02*
X152275316Y-57474565D01*
X152701816Y-63956065D02*
X152701816Y-57340565D01*
X153963316Y-61055565D02*
X153963316Y-60293565D01*
X154661816Y-60039565D02*
X154661816Y-59658565D01*
X154661816Y-61690565D02*
X154661816Y-61309565D01*
X155360316Y-60039565D02*
X153963316Y-60039565D01*
X155360316Y-60293565D02*
X153963316Y-60293565D01*
X155360316Y-61055565D02*
X153963316Y-61055565D01*
X155360316Y-61055565D02*
X155360316Y-60293565D01*
X155360316Y-61309565D02*
X153963316Y-61309565D01*
X156701816Y-63956065D02*
X156701816Y-57340565D01*
X157175316Y-63874565D02*
X157175316Y-57474565D01*
D11*
X157350000Y-50525000D02*
X152250000Y-50525000D01*
X157350000Y-66500000D02*
X157350000Y-50525000D01*
D15*
X152275316Y-57401565D02*
G75*
G02*
X157175316Y-57401565I2450000J0D01*
G01*
X152701816Y-57340565D02*
G75*
G02*
X156701816Y-57340565I2000000J0D01*
G01*
X156701816Y-63956065D02*
G75*
G02*
X152701816Y-63956065I-2000000J0D01*
G01*
X157175316Y-63947565D02*
G75*
G02*
X152275316Y-63947565I-2450000J0D01*
G01*
D11*
%TO.C,D3*%
X128210000Y-77550000D02*
X118200000Y-77550000D01*
X128210000Y-77550000D02*
X128210000Y-84050000D01*
X128210000Y-84050000D02*
X118200000Y-84050000D01*
%TO.C,L2*%
X113090000Y-85790000D02*
X113090000Y-89240000D01*
X113090000Y-98610000D02*
X113090000Y-95160000D01*
X125910000Y-85790000D02*
X113090000Y-85790000D01*
X125910000Y-85790000D02*
X125910000Y-89240000D01*
X125910000Y-98610000D02*
X113090000Y-98610000D01*
X125910000Y-98610000D02*
X125910000Y-95160000D01*
%TO.C,R2*%
X103877500Y-60042224D02*
X103877500Y-59532776D01*
X104922500Y-60042224D02*
X104922500Y-59532776D01*
%TO.C,U5*%
X108880000Y-50280000D02*
X125120000Y-50280000D01*
X108880000Y-57900000D02*
X108880000Y-50280000D01*
X108880000Y-74520000D02*
X108880000Y-73900000D01*
X111000000Y-74520000D02*
X108880000Y-74520000D01*
X125120000Y-50280000D02*
X125120000Y-57900000D01*
X125120000Y-73900000D02*
X125120000Y-74520000D01*
X125120000Y-74520000D02*
X123000000Y-74520000D01*
X108450000Y-57900000D02*
X108210000Y-57564000D01*
X108690000Y-57564000D01*
X108450000Y-57900000D01*
G36*
X108450000Y-57900000D02*
G01*
X108210000Y-57564000D01*
X108690000Y-57564000D01*
X108450000Y-57900000D01*
G37*
%TO.C,L1*%
X149440000Y-81489758D02*
X149440000Y-82310242D01*
X150560000Y-81489758D02*
X150560000Y-82310242D01*
%TO.C,C2*%
X142790000Y-82308767D02*
X142790000Y-82016233D01*
X143810000Y-82308767D02*
X143810000Y-82016233D01*
%TO.C,D1*%
X152550000Y-72090000D02*
X152550000Y-77600000D01*
X155850000Y-72090000D02*
X152550000Y-72090000D01*
X155850000Y-72090000D02*
X155850000Y-77600000D01*
%TO.C,U3*%
X104262000Y-91078000D02*
X104262000Y-92338000D01*
X104262000Y-97898000D02*
X104262000Y-96638000D01*
X108022000Y-91078000D02*
X104262000Y-91078000D01*
X108022000Y-97898000D02*
X104262000Y-97898000D01*
X109542000Y-98128000D02*
X109062000Y-98128000D01*
X109302000Y-97798000D01*
X109542000Y-98128000D01*
G36*
X109542000Y-98128000D02*
G01*
X109062000Y-98128000D01*
X109302000Y-97798000D01*
X109542000Y-98128000D01*
G37*
%TO.C,R3*%
X103877500Y-65754724D02*
X103877500Y-65245276D01*
X104922500Y-65754724D02*
X104922500Y-65245276D01*
%TO.C,U1*%
X129600000Y-86925000D02*
X130550000Y-86925000D01*
X129600000Y-88425000D02*
X129600000Y-86925000D01*
X140000000Y-86925000D02*
X139050000Y-86925000D01*
X140000000Y-88425000D02*
X140000000Y-86925000D01*
X139380000Y-84602500D02*
X139050000Y-84362500D01*
X139380000Y-84122500D01*
X139380000Y-84602500D01*
G36*
X139380000Y-84602500D02*
G01*
X139050000Y-84362500D01*
X139380000Y-84122500D01*
X139380000Y-84602500D01*
G37*
%TO.C,J3*%
X159310000Y-69820000D02*
X159310000Y-80200000D01*
X159310000Y-71200000D02*
X160310000Y-71200000D01*
X159310000Y-71450000D02*
X160310000Y-71450000D01*
X159310000Y-78570000D02*
X160310000Y-78570000D01*
X159310000Y-80200000D02*
X165330000Y-80200000D01*
X160310000Y-71200000D02*
X160310000Y-78820000D01*
X160310000Y-71200000D02*
X160840000Y-71450000D01*
X160310000Y-78820000D02*
X159310000Y-78820000D01*
X160840000Y-71450000D02*
X160840000Y-78570000D01*
X160840000Y-78570000D02*
X160310000Y-78820000D01*
X164300000Y-69530000D02*
X160300000Y-69530000D01*
X164730000Y-70400000D02*
X164730000Y-72000000D01*
X164730000Y-72000000D02*
X165330000Y-72000000D01*
X164730000Y-72940000D02*
X164730000Y-74540000D01*
X164730000Y-74540000D02*
X165330000Y-74540000D01*
X164730000Y-75480000D02*
X164730000Y-77080000D01*
X164730000Y-77080000D02*
X165330000Y-77080000D01*
X164730000Y-78020000D02*
X164730000Y-79620000D01*
X164730000Y-79620000D02*
X165330000Y-79620000D01*
X165330000Y-69820000D02*
X159310000Y-69820000D01*
X165330000Y-70400000D02*
X164730000Y-70400000D01*
X165330000Y-72940000D02*
X164730000Y-72940000D01*
X165330000Y-75480000D02*
X164730000Y-75480000D01*
X165330000Y-78020000D02*
X164730000Y-78020000D01*
X165330000Y-80200000D02*
X165330000Y-69820000D01*
%TO.C,C5*%
X149790000Y-52253733D02*
X149790000Y-52546267D01*
X150810000Y-52253733D02*
X150810000Y-52546267D01*
%TO.C,C6*%
X149790000Y-56153733D02*
X149790000Y-56446267D01*
X150810000Y-56153733D02*
X150810000Y-56446267D01*
D16*
%TO.C,U2*%
X137971000Y-63542000D02*
X137971000Y-51858000D01*
X144829000Y-51858000D02*
X137971000Y-51858000D01*
X144829000Y-63542000D02*
X137971000Y-63542000D01*
X144829000Y-63542000D02*
X144829000Y-51858000D01*
D13*
X144069000Y-62780000D02*
G75*
G02*
X143769000Y-62780000I-150000J0D01*
G01*
X143769000Y-62780000D02*
G75*
G02*
X144069000Y-62780000I150000J0D01*
G01*
X146350500Y-63512500D02*
G75*
G02*
X146049500Y-63512500I-150500J0D01*
G01*
X146049500Y-63512500D02*
G75*
G02*
X146350500Y-63512500I150500J0D01*
G01*
D11*
%TO.C,C7*%
X131690000Y-65483767D02*
X131690000Y-65191233D01*
X132710000Y-65483767D02*
X132710000Y-65191233D01*
%TO.C,C3*%
X142440000Y-88040000D02*
X145390000Y-88040000D01*
X142440000Y-95495563D02*
X142440000Y-88040000D01*
X143504437Y-96560000D02*
X142440000Y-95495563D01*
X143504437Y-96560000D02*
X145390000Y-96560000D01*
X149895563Y-96560000D02*
X148010000Y-96560000D01*
X149895563Y-96560000D02*
X150960000Y-95495563D01*
X150960000Y-88040000D02*
X148010000Y-88040000D01*
X150960000Y-95495563D02*
X150960000Y-88040000D01*
%TO.C,J1*%
X131370000Y-52845000D02*
X132700000Y-52845000D01*
X131370000Y-54175000D02*
X131370000Y-52845000D01*
X131370000Y-55445000D02*
X131370000Y-60585000D01*
X131370000Y-55445000D02*
X134030000Y-55445000D01*
X131370000Y-60585000D02*
X134030000Y-60585000D01*
X134030000Y-55445000D02*
X134030000Y-60585000D01*
%TO.C,R4*%
X162354724Y-64677500D02*
X161845276Y-64677500D01*
X162354724Y-65722500D02*
X161845276Y-65722500D01*
%TO.C,C1*%
X131420000Y-70083437D02*
X131420000Y-71969000D01*
X131420000Y-70083437D02*
X132484437Y-69019000D01*
X131420000Y-76474563D02*
X131420000Y-74589000D01*
X131420000Y-76474563D02*
X132484437Y-77539000D01*
X132484437Y-69019000D02*
X139940000Y-69019000D01*
X132484437Y-77539000D02*
X139940000Y-77539000D01*
X139940000Y-69019000D02*
X139940000Y-71969000D01*
X139940000Y-77539000D02*
X139940000Y-74589000D01*
%TD*%
M02*
